Coordinates
version=1
nRows=5
nColumns=63
inDegrees=yes

Units are S.I. units (second, meters, Newtons, ...)
If the header above contains a line with 'inDegrees', this indicates whether rotational values are in degrees (yes) or radians (no).

endheader
time	pelvis_tilt	pelvis_list	pelvis_rotation	pelvis_tx	pelvis_ty	pelvis_tz	hip_flexion_r	hip_adduction_r	hip_rotation_r	knee_angle_r	knee_angle_r_beta	ankle_angle_r	subtalar_angle_r	mtp_angle_r	hip_flexion_l	hip_adduction_l	hip_rotation_l	knee_angle_l	knee_angle_l_beta	ankle_angle_l	subtalar_angle_l	mtp_angle_l	L5_S1_Flex_Ext	L5_S1_Lat_Bending	L5_S1_axial_rotation	L4_L5_Flex_Ext	L4_L5_Lat_Bending	L4_L5_axial_rotation	L3_L4_Flex_Ext	L3_L4_Lat_Bending	L3_L4_axial_rotation	L2_L3_Flex_Ext	L2_L3_Lat_Bending	L2_L3_axial_rotation	L1_L2_Flex_Ext	L1_L2_Lat_Bending	L1_L2_axial_rotation	L1_T12_Flex_Ext	L1_T12_Lat_Bending	L1_T12_axial_rotation	Abs_r3	Abs_r2	Abs_r1	Abs_t1	Abs_t2	neck_flexion	neck_bending	neck_rotation	arm_flex_r	arm_add_r	arm_rot_r	elbow_flex_r	pro_sup_r	wrist_flex_r	wrist_dev_r	arm_flex_l	arm_add_l	arm_rot_l	elbow_flex_l	pro_sup_l	wrist_flex_l	wrist_dev_l
      1.94915254	      6.08674245	     -2.97054526	     97.35589476	      0.30913711	      1.07600095	      0.38164695	     -4.05528963	      2.12728866	    -17.65283394	      6.15273682	      0.10738552	     32.83819324	     16.97132772	      0.00000000	      0.69349049	     -1.26168937	     -4.68802653	     13.48023215	      0.23527444	     31.77025008	     11.69264364	      0.00000000	      0.02454820	     -0.16998809	     -1.20391301	      0.04558846	     -0.22608416	     -1.27915758	      0.04033024	     -0.41330903	     -1.27915758	      0.02805614	     -0.41330903	     -1.05342389	      0.02279546	     -0.34663971	     -0.97817932	      0.01402684	     -0.26331155	     -0.90293476	      0.17534534	     -1.92293923	     -6.69580301	      0.00000000	      0.00000000	     13.83203380	      8.62160592	    -10.56082805	     12.19172988	    -15.81225793	      2.70541564	    142.77618365	     85.40003868	      9.98428235	     17.37876748	     13.71677781	     -5.46202735	     14.34975473	    103.44349197	     70.13459478	     -7.16182397	      3.58294639
      1.96610169	      6.13145831	     -2.87266858	     97.23209631	      0.30906011	      1.07574347	      0.38130843	     -4.16546397	      2.16296710	    -17.62718946	      6.18534161	      0.10795458	     32.83925420	     16.97505758	      0.00000000	      0.55785135	     -1.32346663	     -4.86378553	     13.51642766	      0.23590617	     31.84822299	     11.53591263	      0.00000000	      0.01348973	     -0.15336505	     -1.19271229	      0.02505178	     -0.20397552	     -1.26725681	      0.02216228	     -0.37289179	     -1.26725681	      0.01541741	     -0.37289179	     -1.04362326	      0.01252656	     -0.31274201	     -0.96907874	      0.00770803	     -0.23756246	     -0.89453422	      0.09635580	     -1.73489614	     -6.63350796	      0.00000000	      0.00000000	     13.33336338	      8.32842506	     -9.93726170	     10.62850735	    -15.12365525	      2.08646209	    141.09524744	     86.20312512	      9.57828747	     17.92134379	     13.78457509	     -5.40278275	     14.25272148	    103.16881737	     70.21672917	     -7.11575763	      2.94950845
      1.98305085	      6.16651089	     -2.80706604	     96.95327009	      0.30914080	      1.07561909	      0.38114027	     -4.22873155	      2.17646679	    -17.42049666	      6.17363554	      0.10775027	     32.82015767	     16.96047657	      0.00000000	      0.40146074	     -1.36485674	     -5.28629706	     13.41930264	      0.23421101	     31.87996258	     11.38362043	      0.00000000	      0.01293230	     -0.13337994	     -1.18197430	      0.02401658	     -0.17739532	     -1.25584769	      0.02124648	     -0.32429999	     -1.25584769	      0.01478033	     -0.32429999	     -1.03422751	      0.01200894	     -0.27198837	     -0.96035412	      0.00738952	     -0.20660553	     -0.88648072	      0.09237415	     -1.50882056	     -6.57378645	      0.00000000	      0.00000000	     12.52222561	      8.04243965	     -8.82220840	      9.60351791	    -14.67945808	      1.92201606	    139.46667206	     87.52987639	      8.97367751	     18.61707701	     13.67244051	     -5.52485147	     14.17460018	    102.80147908	     70.45773136	     -6.82948261	      1.16004161
      2.00000000	      6.20749031	     -2.69250312	     96.84222474	      0.30918337	      1.07546752	      0.38109174	     -4.33315284	      2.21883445	    -17.40025649	      6.18612030	      0.10796817	     32.82527025	     16.99124137	      0.00000000	      0.27748795	     -1.43776396	     -5.51894166	     13.43544003	      0.23449266	     31.98352528	     11.22927449	      0.00000000	      0.00072144	     -0.12230986	     -1.19960136	      0.00133979	     -0.16267211	     -1.27457645	      0.00118526	     -0.29738419	     -1.27457645	      0.00082454	     -0.29738419	     -1.04965119	      0.00066993	     -0.24941426	     -0.97467611	      0.00041223	     -0.18945797	     -0.89970102	      0.00515319	     -1.38359358	     -6.67182289	      0.00000000	      0.00000000	     11.89154019	      7.77027757	     -8.61430575	      8.77486079	    -14.24016412	      1.77411026	    137.97475723	     87.80275962	      8.80494114	     18.94915747	     13.47669062	     -5.65955345	     14.03673304	    102.93313938	     70.59434234	     -6.79946231	      0.87720759
      2.01694915	      6.18411950	     -2.58796858	     96.66622798	      0.30933679	      1.07531727	      0.38101544	     -4.45149610	      2.19795994	    -17.31992076	      6.14871111	      0.10731525	     32.87582616	     17.06243250	      0.00000000	      0.12286775	     -1.43343937	     -5.75891858	     13.37505000	      0.23343866	     32.09064601	     11.13162946	      0.00000000	     -0.00326067	     -0.11522363	     -1.22742029	     -0.00605539	     -0.15324743	     -1.30413405	     -0.00535696	     -0.28015474	     -1.30413405	     -0.00372662	     -0.28015474	     -1.07399275	     -0.00302786	     -0.23496403	     -0.99727898	     -0.00186315	     -0.17848141	     -0.92056521	     -0.02329065	     -1.30343277	     -6.82654341	      0.00000000	      0.00000000	     10.96193444	      7.32010830	     -8.09087776	      8.36439738	    -14.13641008	      2.08157743	    136.70642082	     88.01195032	      8.98677418	     19.25347826	     13.12525639	     -5.89538920	     13.78321816	    103.11902781	     71.04870917	     -6.73493041	      0.31758190
